<svg version="1.1" class="florida" xmlns="http://www.w3.org/2000/svg" xmlns:xlink="http://www.w3.org/1999/xlink" viewBox="-67 -66.019 150 147.538">
<g>
	<path stroke="#CE5A27" stroke-width="0.25" stroke-miterlimit="10" d="M59.369,78.044l-0.151-0.006l-0.076,0.073l0.057,0.146
		l0.065,0.078l0.181,0.121l0.151,0.205l0.042-0.106l-0.1-0.319L59.369,78.044z M57.492,79.093l0.053,0.069l0.139,0.088l0.081-0.17
		l-0.141-0.085L57.492,79.093z M58.4,54.124l-0.228,0.15l0.008,0.106l0.524,0.208l0.146-0.032l0.145-0.154l-0.074-0.15l-0.23-0.048
		l-0.111,0.03L58.5,54.28l-0.052-0.097L58.4,54.124z M58.219,77.523l-0.589-0.46l-0.138-0.022l-0.059-0.036l-0.058-0.076
		l1.306,2.023l0.028,0.647l0.438-0.331l-0.291-0.853L58.219,77.523z M57.624,54.035l0.217,0.262l0.065,0.072l0.074,0.033
		l-0.004-0.063l0.053-0.064l0.074-0.098l0.116-0.082l0.2-0.024l0.134-0.063l-0.053-0.134l-0.141-0.105l-0.134-0.069l-0.356-0.28
		l-0.138-0.135l-0.341-0.17l-0.221,0.187l-0.012,0.216l0.029,0.127v0.497l0.128-0.017l0.157-0.149L57.624,54.035z M56.919,53.667
		l0.059-0.145l-0.059-0.146l-0.053-0.066l-0.039-0.183l-0.14-0.334l-0.182-0.152l-0.309,0.06l-0.087,0.045l-0.174,0.038
		l-0.268,0.135l-0.059,0.239l0.095,0.129l0.059,0.058v0.087l0.022-0.009l0.036-0.147l0.018-0.086l0.003-0.1l0.101-0.078l0.092,0.072
		l0.059,0.076l0.31,0.025l0.11,0.156l0.058,0.118l0.083,0.127l0.138,0.139L56.919,53.667z M57.026,78.538l-0.146-0.015l-0.041,0.067
		l0.069,0.006l-0.028,0.036l-0.129,0.11l0.025,0.146l0.227,0.201l0.047,0.094l0.104,0.005l0.042-0.216l-0.052-0.24L57.026,78.538z
		 M60.635,78.736l-0.246,0.296l0.03,0.042l0.192-0.104l0.158-0.151l-0.036-0.089L60.635,78.736z M72.209,69.382l0.275,0.163
		l-0.071-0.134L72.209,69.382z M71.55,68.65l0.107,0.169l0.034-0.175L71.55,68.65z M72.196,68.993l-0.086-0.052l-0.025,0.216
		l0.059-0.026l0.076-0.022L72.196,68.993z M63.59,77.774l-0.402,0.187l0.636,0.006l0.221,0.129l0.101,0.319l0.1-0.29l0.128-0.203
		l0.175-0.146l0.466-0.187l0.058-0.063l0.018-0.149l-0.426,0.062L63.59,77.774z M71.178,71.581l-0.011,0.14l0.135-0.112
		L71.178,71.581z M56.342,78.479l-0.064-0.074l-0.146-0.117l-0.152-0.071l-0.123-0.011l-0.092-0.058l-0.065,0.017l-0.083,0.228
		l-0.021,0.285l0.08,0.187l0.047,0.045l0.054,0.04l0.092,0.025l0.084-0.053l0.098-0.028l0.122,0.04l0.111,0.112l0.082,0.156
		l0.06-0.092l-0.031-0.396L56.342,78.479z M71.381,74.507l-0.168,0.089l-0.123,0.118l-0.047,0.138l0.093,0.012l0.303-0.2
		l0.147-0.105l0.227-0.26l-0.03-0.101L71.381,74.507z M69.953,75.29l-0.123,0.115l-0.053-0.034l0.006-0.153l0.034-0.207l-0.88,0.628
		l-0.197,0.239l0.721-0.052l0.321-0.088l0.17-0.151l0.1-0.134l0.028-0.064l-0.007-0.098L69.953,75.29L69.953,75.29L69.953,75.29z
		 M65.224,77.671l1.462-0.625l0.285-0.263l0.246-0.045l0.081-0.043l0.081-0.073v-0.134l-0.622,0.138L65.224,77.671z M70.623,70.805
		l0.135,0.217l0.006-0.11l-0.07-0.187L70.623,70.805z M52.015,52.537l0.053,0.104l0.054,0.145l0.116,0.06l0.257,0.035l0.105-0.121
		l0.239-0.421l-0.07-0.227l-0.252-0.095l-0.248,0.042l-0.2-0.011l-0.186,0.021l-0.046,0.2l0.038,0.129l0.047,0.051L52.015,52.537z
		 M41.292,35.155l-0.025-0.526l-0.126-0.113l-0.065-0.035h-0.095l0.252,1.034l0.169,0.442l0.269,0.503l-0.076-0.496L41.292,35.155z
		 M-5.102-35.071l-0.466,0.298l-0.788,0.413l-0.151,0.19l1.102-0.239l0.443-0.245l0.198-0.447l-0.144-0.046L-5.102-35.071z
		 M33.676,19.516l-0.477-0.88l-0.194-0.165l-0.33-0.158l0.087,0.273L33,18.967l0.141,0.169l0.163,0.344l0.84,0.992l0.344,0.267
		l-0.075-0.338L33.676,19.516z M41.029,33.224l-0.098-0.479l-0.215-0.508l-0.095-0.152l-0.058,0.017l-0.117,0.135l0.186,0.403
		l0.065,1.071l0.163,0.467l0.147-0.49L41.029,33.224z M25.618-19.87l-0.1-0.135l-0.138-0.099l-0.146,0.123l-0.013,0.314l0.165,0.092
		l0.255-0.122l0.141-0.052l-0.065-0.036L25.618-19.87z M-7.683-33.297l-0.263,0.086l-0.092,0.041l-0.07,0.107l-0.083,0.098
		l-0.156,0.046l-0.205,0.034l-0.052,0.081l-0.011,0.1l-0.065,0.092l-4.204,2.024l-0.869,0.216l-0.444,0.029l-0.537-0.327
		l-0.321-0.076l0.514,0.351l0.436,0.135l1.155-0.007l0.42-0.128l1.201-0.694l0.414-0.351l1.966-0.845l1.171-0.916l0.45-0.181
		l-0.006-0.092l0.162-0.153l0.111-0.051v-0.17l-0.252,0.135L-7.683-33.297z M76.967,9.52l0.567,1.645l0.367,0.648l0.047,0.193
		l0.04,0.268l0.174,0.449l0.098,0.665l0.141,0.313l0.181,0.286l0.175,0.372l0.812,3.342l0.25,0.705l0.03,0.282l0.059,0.123
		l0.273,0.219l0.058,0.106l0.076,0.321l1.202,2.641l0.209,0.863l0.402,0.479l0.281,0.629l-0.083-0.512l-3.369-9.068l-0.064-0.352
		l-0.038-0.458l-0.086-0.46l-0.28-0.827l-0.8-1.397l-0.401-0.91L77.135,9.18L77.076,9.1l-0.051-0.045L76.99,8.989v-0.11
		l-0.146,0.047l-0.053,0.04l-0.069,0.075L76.967,9.52z M-45.903-48.642l-0.681,0.177l-0.134-0.158l-0.466,0.198l-2.123,0.285
		l-0.862-0.028l-0.304,0.04l-0.543,0.208l-0.181,0.078l-0.484,0.156l-1.405-0.016l-1.155,0.407l-2.285,0.385l-1.603,0.035
		l-0.363,0.135L-57.4-46.6l13.412-1.708l0.215,0.101l0.222,0.034l0.197-0.034l0.165-0.101l-1.885-0.245L-45.903-48.642z
		 M-14.898-31.713l0.111-0.11l-0.046-0.246l-0.03-0.025l-0.252-0.021l-0.261-0.095l-0.491-0.075l-0.285,0.244l-0.369,0.029
		l-0.815-0.123l0.203,0.174l0.398,0.159l0.209,0.118l0.135,0.156l0.134,0.208l0.151,0.187l0.174,0.077l0.421,0.156h0.233
		l0.101-0.228l0.046-0.208l0.104-0.204L-14.898-31.713z M44.602,39.867L44.225,39.9l-0.653-0.146l-0.385-0.163l-0.304-0.238
		l-0.234-0.338l-0.168-0.455l-0.053-0.245l-0.076-0.211l-0.105-0.175l-0.174-0.135l0.087,0.677l0.187,0.689l0.139,0.327l0.181,0.239
		l0.216,0.18l1.195,0.694l0.303,0.071l0.338-0.111l0.502-0.421l0.374-0.081l-0.821-0.448L44.602,39.867z M52.903,80.322
		l-0.537,0.147l-0.234,0.011l-0.186-0.159h-0.124l-0.092,0.129l-0.042,0.123l0.024,0.11l0.111,0.109v0.135l-0.199,0.221l-0.087,0.07
		l1.499-0.426l-0.089-0.37L52.903,80.322z M51.321,80.934l-0.08-0.08l-0.105-0.06h-0.123l-0.404,0.351l-0.15,0.076l-0.211-0.015
		l-0.21-0.07l-0.169,0.047l-0.083,0.338l0.596-0.081l0.297-0.089l0.187-0.129l0.082-0.134l0.064-0.158l0.08,0.124l0.018-0.007
		l0.006-0.071l0.018-0.047l0.047,0.112l0.051,0.089l0.07,0.058l0.111,0.033l-0.03-0.167L51.321,80.934z M72.88,69.977l0.087-0.058
		l-0.053-0.129l-0.093,0.059L72.88,69.977z M55.07,78.414l-0.064-0.021l-0.058,0.006l-0.035-0.031l0.013-0.11h-0.123l-0.134,0.456
		l0.199,0.023l0.135,0.052l0.028,0.082l-0.104,0.124v0.162l0.356-0.031l0.208,0.118l0.065,0.21l-0.094,0.291h-0.122l-0.105-0.256
		l-0.257-0.17l-0.583-0.162l0.117,0.15l0.123,0.106l0.292,0.185l-0.147,0.186l-0.065,0.038l-0.045,0.071l-0.123,0.085l-0.433,0.212
		l-0.196-0.117l-0.227,0.086l-0.387,0.328v0.145l1.411-0.401l0.678-0.28l0.49-0.353v-0.162l-0.678-0.789L55.07,78.414z
		 M55.223,52.146l-0.134-0.156l-0.245-0.024l-0.053,0.186l0.047,0.129l0.095,0.098l0.123,0.064l0.027,0.193l-0.046,0.332
		l0.059,0.088l0.18-0.378l0.059-0.168l-0.047-0.142l-0.101-0.111l-0.04-0.063l0.018-0.015L55.223,52.146z M43.665,35.026
		l-0.384-0.396l-0.398-0.147h-0.267l0.257,0.642l0.372,0.701l0.263,0.67l-0.082,0.548l0.258,0.426l0.296,1.079l0.261,0.448
		l0.263,0.094l0.018-0.385l-0.141-1.124l-0.157-0.323l-0.303-0.472l-0.234-0.488l0.194-0.788L43.665,35.026z M43.766,80.392
		l-0.245-0.076l-0.223,0.056l-0.051,0.061l0.111-0.009l0.106,0.006l0.133,0.078l0.165,0.089l0.157,0.308l0.023,0.118l0.053-0.211
		l-0.036-0.232L43.766,80.392z M43.589,81.279l-0.01,0.058l0.197-0.058l0.1-0.081l-0.094,0.016L43.589,81.279z M63.731,64.59
		l0.163,0.129l0.187,0.117l0.051-0.213l0.047-0.097l-0.012-0.095l-0.053-0.163l-0.163-0.028l-0.227,0.051l-0.076-0.011l0.041-0.045
		l-0.119-0.037l-0.116,0.117L63.731,64.59z M32.757-14.155l0.138,0.034l0.07-0.047l-0.018-0.046l-0.069-0.018l-0.07-0.052
		l-0.101-0.04h-0.111l-0.07,0.046l0.038,0.035l0.064-0.007L32.757-14.155z M30.259-18.821l0.004-0.109l-0.092-0.058h-0.092
		l-0.106,0.052l-0.033,0.162l0.069,0.083l0.13-0.041L30.259-18.821z M32.343-11.717l0.038,0.128l0.077,0.076l-0.018,0.089
		l-0.076,0.115l-0.016,0.058l0.092,0.025h0.209l0.163-0.141l0.007-0.233l-0.129-0.168l-0.158-0.083l-0.139,0.011L32.343-11.717z
		 M31.699-13.485l-0.035,0.118l0.092,0.052l-0.005-0.057L31.699-13.485z M31.466-11.929l-0.07,0.037l-0.016,0.07l0.064-0.029
		L31.466-11.929z M33.187-6.37l0.058-0.031l0.018-0.052L33.18-6.604l-0.176,0.011l0.101,0.065l0.063,0.099v0.041L33.187-6.37z
		 M32.079-10.307l0.082-0.021l0.08-0.048l0.019-0.046l-0.098-0.025l-0.1,0.077L32.079-10.307z M31.944-13.706l-0.059,0.018
		l-0.012,0.104l0.082-0.078l0.053,0.046l0.012,0.047l0.135-0.145l-0.083-0.071l-0.082,0.016l0.054,0.056l-0.018,0.027L31.944-13.706
		z M31.699-12.523l0.042,0.064l0.163-0.087l0.082-0.006l0.052,0.029l0.086,0.03l0.065-0.047l-0.065-0.043l-0.175-0.052l-0.168,0.037
		L31.699-12.523z M32.469-13.6l0.239-0.048l0.187,0.026l0.082-0.008l0.007-0.046l-0.076-0.07l-0.098-0.046h-0.095l-0.129,0.029
		l-0.126,0.081L32.469-13.6z M73.532-6.941l-0.331-0.67l-0.275,0.017l-0.245,0.107l-0.437,0.323l-0.419,0.253L71.71-6.756
		l-0.123,0.369l-0.42-0.014l-0.153,0.607l0.048,0.731l0.181,0.354l0.168,1.803l0.098,0.415l0.286,0.484l0.699,2.135l0.297,0.611
		l-0.034-0.332l-0.147-0.362l-0.176-0.438l-0.038-0.261l0.016-0.211l0.094-0.403l0.122-2.735l0.169-0.846l0.613-1.392L73.532-6.941z
		 M33.345-13.955l-0.192-0.082l-0.123,0.052l0.199,0.141l-0.024,0.105l0.029,0.11l-0.005,0.112l0.047,0.11l0.141,0.106l0.047-0.069
		l-0.013-0.066l-0.033-0.052l0.004-0.308L33.345-13.955z M72.972,1.205l0.054,0.239l0.029,0.274h0.146l-0.058-0.205l-0.328-0.721
		L72.972,1.205z M33.06-8.302l0.068,0.048l0.052,0.023l0.019-0.057l0.011-0.081l-0.024-0.089l-0.314-0.027l-0.03,0.027l0.095,0.031
		L33.06-8.302z M32.698-8.988l-0.042-0.151l-0.041,0.046L32.698-8.988z M32.919-9.856l-0.076-0.083l-0.018,0.104l0.053,0.025
		L32.919-9.856z M33.245-11.04l-0.151-0.037l-0.163,0.065l0.046,0.1l0.356-0.087L33.245-11.04z M32.738-10.687l-0.11-0.032
		l-0.117,0.052v0.081l0.071,0.041l-0.055,0.025l-0.074-0.006l-0.076,0.006l-0.007,0.073l0.286,0.108l-0.006,0.085l0.076,0.059h0.087
		l0.028-0.018l0.105-0.163l0.018-0.269l-0.135-0.057L32.738-10.687z M64.325,65.075l0.076,0.285l0.152,0.255l0.156,0.059l0.14-0.092
		l0.065-0.139l0.174-0.258l-0.058-0.234l-0.094-0.042l-0.243-0.053l-0.257,0.037L64.325,65.075z M75.072,67.466l-0.07,0.015
		l-0.029,0.082l-0.094,0.029l-0.058,0.083l0.024,0.006l0.145-0.031L75.072,67.466z M76.204,69.208l-0.059-0.297l-0.082,0.21
		l-0.144,0.115l-0.031,0.087l-0.046,0.025l-0.047,0.08l0.047,0.066l0.252-0.269L76.204,69.208z M81.737,60.876l-0.058,0.106
		l-0.315,1.258l-0.169,0.351l-0.268,0.216l0.058,0.023l0.047,0.006l0.027,0.029l0.282-0.262l0.267-0.462l0.187-0.496l0.076-0.472
		l0.035-0.092l0.035-0.175l-0.03-0.111L81.737,60.876z M82.35,55.791l-0.082,0.116l-0.111,0.098l-0.152,0.099v0.134l0.088,0.025
		l0.053,0.033l0.053,0.047l0.076,0.042l-0.21,0.198l-0.03,0.229l0.123,0.175l0.252,0.011l0.093-0.14l0.04-1.215h-0.132L82.35,55.791
		z M73.959,68.128l0.07-0.15l-0.134-0.083l-0.147-0.058l-0.08,0.101l0.064,0.092L73.959,68.128z M72.73,69.219l-0.101,0.03v0.058
		l0.082,0.088l0.029,0.121l0.058,0.029l0.036,0.069l0.047-0.092v-0.156l-0.059-0.082L72.73,69.219z M67.159,66.164l0.071,0.134
		l0.034,0.315l0.035-0.018l0.076-0.135l0.04-0.186l-0.104-0.28l-0.124-0.135l-0.116,0.129l-0.024,0.165l0.04,0.027L67.159,66.164z
		 M79.889,64.181l-0.531,0.776l-0.263,0.165l-0.629,0.155l-0.128,0.135l0.069,0.245l0.157,0.117l0.146,0.146l0.047,0.314
		l-0.187,0.457l-0.728,0.784l-0.379,0.946l-0.892-0.185l-0.122,0.383l0.279-0.111l0.227,0.083l0.113,0.203l-0.076,0.255
		l-0.153-0.075L76.77,68.97l0.004,0.08l0.094,0.159l-0.176,0.262l-0.216,0.112l-0.421,0.059l0.07,0.279L76,70.177l-0.49,0.513
		l-0.281,0.462l-0.151,0.111l-0.321,0.034l-0.105,0.127l-0.232,0.758l-0.228,0.095l-0.297,0.069l-0.187,0.115l0.104,0.239
		l0.386-0.004l0.448-0.442l0.729-0.957l0.613-0.531l0.15-0.222l0.181-0.508l0.129-0.234l0.221,0.066l0.211-0.123l1.609-1.585v-0.136
		L78.4,67.693l0.245-0.531l0.648-0.928l0.577-0.744l0.1-0.217l0.04-0.17l0.098-0.254l0.129-0.25l0.135-0.141l0.082-0.047
		l0.074-0.063l0.064-0.083l0.065-0.123l-0.432-0.173L79.889,64.181z M73.269,73.005l-0.622,0.759l0.199-0.076l0.414-0.422
		l0.163-0.255l0.006-0.047l-0.018-0.078L73.269,73.005z M63.736,63.931l-0.116,0.059l-0.063,0.103l0.144,0.047l0.701,0.048
		l0.023-0.063l-0.316-0.053L63.736,63.931z M64.897,64.799l0.181-0.139l-0.047-0.083l-0.344-0.092l-0.11,0.036l-0.043,0.117
		l0.052,0.127l0.094,0.087L64.897,64.799z M82.961,30.153l-0.116-0.689l-0.264-0.342v-0.165l0.304-0.321v-0.593l-0.512-2.108
		l-0.129-0.227l-0.187-0.147l-0.437-0.126l-0.251-0.117v-0.135l0.234-0.11l0.232-0.031l0.205-0.069l0.139-0.239l-0.029-0.263
		l-0.373-0.803l-0.408-1.197l-0.479-0.966l-0.058-0.323l-0.129-0.349l-0.554-0.28l-0.129-0.288l-0.746-0.835l-0.156,0.026
		l-0.444,0.141l-0.169-0.064l-0.315-0.201l-0.138-0.038l-0.502-0.584l-0.117-0.187l0.263-0.017l0.169,0.089l0.122,0.125l0.133,0.108
		l0.444,0.228l0.788,0.203l0.227,0.198l0.175,0.444l-0.018-0.345L76.82,12.51l-0.699-3.361L69.793-4.88l-0.151-0.53L69.06-6.594
		l-0.368-1.277l-0.181-0.455l-0.466-2.163l-0.076-0.916l-0.077-0.438l-0.611-1.19l0.151-0.139v-0.169l-0.221-0.542l-0.323-2.041
		l0.387,0.168l0.658,0.613l0.851,0.311l0.059,0.395l-0.151,0.454l-0.169,0.34l-0.146-0.141l-0.145,0.321l-0.076,0.431v0.444
		l0.082,0.332l0.28,0.322l0.355,0.167l1.26,0.216l0.175-0.004l0.238-0.076l0.013-0.078l-0.024-0.324l0.011-0.084l0.129-0.005
		l0.11,0.064l0.099,0.078l0.064,0.032l0.392-0.032l0.267,0.098l0.174,0.22l0.122,0.339l0.147,0.887L72.031-9.55l-0.595,2.827
		l-0.042,3.844l0.187,0.939l0.589,1.771l1.167,2.123l0.187,0.774l0.589,0.69l0.08,0.156l0.064,0.204l0.48,0.928l-0.022-0.956
		l-1.588-2.439l-0.414-0.95L72.65,0.007L72.364-0.63l-0.421-2.266L71.851-4.12l0.052-0.478l-0.146-0.153l0.141-0.285l0.012-2.187
		l0.064-0.117l0.156-0.075l0.152-0.17l0.105-0.187l0.047-0.121l0.18-0.035l0.35-0.41l0.245-0.473l-0.297-0.442l-0.478-1.46
		L71.256-12.8l-1.045-1.48l-1.242-2.297l-2.664-4.24l-0.105-0.43l-0.174-0.405l-0.343-0.254l-0.252-0.258l0.111-0.395l-1.826-3.407
		l-1.289-3.569l-1.184-2.652l-0.875-1.633l-0.128-0.412l-0.087-0.462l-0.028-0.453l-0.087-0.425l-0.6-1.061l-0.276-1.357
		l-0.196-0.201l-0.128-0.245l-0.11-1.118l-0.101-0.327l0.146-0.169l-0.199-0.089l-0.129-0.127l-0.034-0.17l0.08-0.214l-0.111-0.037
		l-0.18-0.092L58.09-40.81l0.116-0.72l-0.669-2.618l-0.121-1.722l-0.089-0.435L56.9-47.089l-0.174-0.413l-0.636-2.49l-0.024-0.939
		l0.135-1.014l-0.065-0.216l-0.141-0.152l-0.138-0.122l-0.058-0.129l0.065-0.735l-0.065-0.289L55.694-53.8l-0.088-0.083
		l-0.098-0.051l-0.117-0.121l-0.094-0.182l-0.129-0.349l-0.122-0.182l-0.536-0.446l-0.011-0.092l-0.339-0.128l-0.15-0.322
		l-0.026-0.406l0.047-0.401l-0.016-0.516l0.04-0.192l0.175-0.077l0.187,0.073l0.152,0.179l0.099,0.228l0.034,0.231l0.011,0.529
		l0.052,0.417l0.163,0.321l0.316,0.234l-0.077-0.66l0.077-1.936l0.147-0.612l0.034-0.391l-0.104-0.167l-0.07-0.053l-0.019-0.106
		l-0.033-0.107l-0.153-0.051l-0.15,0.022l-0.274,0.113l-0.123,0.023L54.03-59.25l-0.016-0.179l-0.146-0.035l-0.356-0.098
		l-0.641,0.193l-0.187,0.004l-0.816-0.185l-0.199-0.089l-0.267-0.167l-0.141-0.006l-0.205,0.033l-0.215-0.023l-0.951-0.285
		l-0.291-0.129l-0.199-0.12l-0.129-0.124l-0.191-0.135l-0.281-0.075l-0.179-0.017l-0.177,0.023l-1.8-0.742l-0.27-0.15l-0.15-0.118
		l-0.291-0.184L45.758-61.9l-0.152-0.006L45.483-61.9l-0.274-0.017l-0.152,0.011l-0.169,0.047l-0.098,0.087l-0.052,0.092
		l-0.031,0.146v0.047l-0.022,0.154l-0.024,0.108l-0.063,0.106l-0.084,0.072l-0.178,0.032l-0.165-0.021L43.968-61.1l-0.1,0.027
		l-0.058,0.081l-0.04,0.241l-0.028,0.129l-0.059,0.108l-0.234,0.233l-0.058,0.089l-0.04,0.1l-0.028,0.104l-0.013,0.222l0.065,0.567
		l-0.011,0.13l-0.024,0.147l-0.14,0.518l-0.012,0.129l0.018,0.269l0.04,0.18l0.064,0.212l0.093,0.203l0.379,0.538l0.087,0.174
		l0.031,0.112l0.024,0.228l-0.007,0.264l-0.269,1.515l-0.396,1.424L43.2-52.861l-0.012,0.141l0.04,0.659l-0.007,0.14l-0.041,0.177
		l-0.076,0.089L43-51.603l-0.542,0.15h-0.087l-0.1-0.012l-0.368-0.115l-0.132-0.023l-0.917,0.107l-0.187-0.014l-0.138-0.046
		l-0.107-0.07l-0.073-0.082l-0.113-0.197l-0.297-0.846l-0.04-0.203l-0.005-0.111l0.011-0.133l0.052-0.27l0.098-0.332l0.018-0.123
		l0.013-0.116l-0.013-0.104l-0.028-0.104l-0.095-0.203l-0.087-0.144l-0.466-0.605l-0.107-0.185l-0.022-0.095v-0.095l0.034-0.087
		l0.083-0.146l0.059-0.145v-0.071l-0.043-0.033l-0.815-0.052l-0.724-0.054l-0.927-0.064l-1.113-0.076l-1.29-0.087l-1.444-0.099
		l-1.594-0.112l-1.721-0.115l-1.835-0.129l-1.936-0.129l-2.023-0.141l-2.094-0.145l-2.145-0.144l-2.187-0.152l-2.21-0.153
		l-2.222-0.15l-2.221-0.151l-2.197-0.155L6.538-58.31l-2.116-0.146l-2.054-0.139l-1.971-0.141l-1.877-0.127l-1.772-0.118
		l-1.652-0.115l-1.509-0.104l-1.352-0.095l-1.19-0.083l-1.008-0.065l-0.811-0.056l-0.595-0.041l-0.367-0.023l-0.128-0.011
		l-0.624-0.041l-0.174,0.027l-0.88-0.937l-0.298-1.505l-0.024-0.968l-0.145-0.535l-0.269-0.543l-0.168-0.169l-0.158-0.689
		l-0.113-0.25l-0.12-0.123l-0.345-0.244l-0.087-0.105l-0.018-0.286l0.041-0.076H-43.49l-3.137,0.007h-19.721l-0.128,0.321
		l0.034,1.074l-0.028,0.11l-0.41,0.887l-0.074,0.232l-0.03,0.141L-67-63.106l0.028,0.179l0.082,0.187l0.197,0.311l0.227,0.284
		l0.953,0.939l0.11,0.17l0.408,0.755l0.279,0.392l0.28,0.224l1.588,0.971l0.156,0.145l0.071,0.082l0.024,0.228l-0.019,0.337
		l-0.128,0.797l-0.157,0.598L-63.24-55.9l-0.074,0.198l-0.024,0.098l0.047,0.368l0.367,1.092l0.018,0.021l0.331,0.193l0.141,0.112
		l0.169,0.07l0.396-0.043l0.169,0.043l0.171,0.222l0.098,0.315l-0.011,0.274l-0.181,0.125l-0.478,0.108l-0.368,0.282l-0.577,0.7
		v0.156l0.239,0.17l0.012,0.227l-0.146,0.233l-0.227,0.176l-0.239,0.059l-0.491-0.011l-0.239,0.092l0.346,0.121l0.337,0.176
		l-0.73,0.1l-0.226,0.071l-0.176,0.12l-0.122,0.135l-0.134,0.117l-0.228,0.095v0.168l0.211-0.098l0.435-0.124l0.163,0.054
		l0.339-0.195l2.805-0.594l0.443-0.198l-0.07-0.415l0.199-0.07l0.503-0.075l0.169-0.095l0.075-0.222l-0.059-0.563l0.048-0.217
		l0.366-0.228l0.45-0.036l0.38-0.138l0.162-0.532l0.081,0.065l0.024,0.023l0.041,0.053h0.122l0.465-0.881l0.077-0.28l-0.087-0.403
		l-0.367-0.579l-0.088-0.28l-0.07-0.728l0.07-0.245l0.287-0.044l0.227,0.139l0.105,0.234l0.141,0.198l0.338,0.051l-0.04,0.104
		l-0.048,0.27l-0.039,0.104l0.431,0.058l0.169,0.328l0.065,0.403l0.134,0.301l-0.113,0.317l-0.034,0.373l0.111,0.262l0.303-0.011
		l0.199-0.251l0.135-0.783l0.249-0.53l0.426-1.242l0.105-0.165l0.018-0.224l-0.187-0.405l0.421,0.244l0.216,0.473l0.202,0.304
		l0.375-0.247l0.111,0.139l0.024,0.073l0.016,0.104l-0.675,0.301l-0.287,0.246l-0.117,0.326l0.03,0.223l0.099,0.108l0.146,0.037
		h0.197l0.088,0.1l0.267,0.443l0.176,0.099l0.332,0.032l0.444,0.118l0.408,0.201l0.238,0.274l-0.03,0.244l-0.286-0.094l-0.367-0.202
		l-0.261-0.104l-1.284,1.052l-0.356,0.064l-1.08,0.011l-1.19,0.322l-0.739,0.349l-0.165,0.04l-0.122,0.101l-0.081,0.251l0.991-0.124
		l1.965-0.55l3.068-0.416l1.107-0.013l0.56-0.094l0.436-0.22l0.42,0.172l1.604-0.172l1.538,0.093l0.228-0.166l-0.01-0.349
		l0.028-0.098l0.46,0.07l0.245-0.075l0.246-0.333l0.174-0.076l0.257-0.021l0.257-0.084l0.232-0.118l0.203-0.156l0.043-0.167
		l-0.1-0.571l-0.012-0.27l0.165,0.297l0.196,0.217l0.187,0.035l0.135-0.252l0.145-0.116l0.193-0.046l0.473,0.012l-0.448,0.613
		l-0.088,0.337l0.27,0.291l0.349,0.046l0.274-0.168l0.244-0.222l0.279-0.112l0.386-0.044l0.857-0.23l0.378-0.046l0.84,0.146
		l0.396-0.031l0.322-0.291l0.24,0.61l0.257,0.218l0.35-0.076l0.513-0.257l-0.013,0.38l-0.144,0.11l-0.098,0.104l0.111,0.346
		l0.6,0.653l0.017,0.123l0.158,0.168l-0.024,0.315l-0.193,0.169l-0.35-0.266l-0.199-0.114l-0.945-0.271l-0.536-0.426l-0.28-0.176
		l-0.272-0.034l-0.252,0.133l0.047,0.165l0.238,0.128l0.304,0.052l0.092,0.065l-0.059,0.144l-0.126,0.157l-0.123,0.089l-0.892-0.222
		l-0.217-0.193l-0.144-0.256l-0.082-0.262l-0.018,0.023l-0.022-0.035l-0.095,0.012l-0.111,0.233l-0.104,0.314l-0.146,0.268
		l-0.244,0.118l-1.296-0.298l-1.586-0.052l-0.315-0.106l-0.016,0.07v0.063l-0.024,0.037l0.513,0.338l2.373,0.273l3.393,0.933
		l2.508,0.771l2.292,1.199l1.69,0.84l2.373,1.743l0.466,0.118l-0.151-0.216l-0.122-0.146l0.157-0.041l0.251,0.263l0.154-0.326
		l-0.334-0.304l-0.361-0.226l-0.157-0.28l0.298-0.431l-0.246-0.245l-0.187-0.258l-0.221-0.203l-0.362-0.082l-0.426,0.071
		l-0.261,0.115h-0.222l-0.309-0.256l-0.141-0.403l0.203-0.302l0.362-0.205l0.327-0.092l0.623-0.071l0.229-0.162l0.227-0.403
		l0.239,0.472l0.256,0.368l0.18,0.337l-0.006,0.39l0.235,0.076l0.139-0.182l0.14-0.25l0.222-0.129l0.275-0.099l0.291-0.176
		l0.227-0.033l0.093,0.307l0.35-0.237l0.478-0.823l0.192-0.182l0.199,0.115l0.176,0.27l0.251,0.55l-0.473-0.025l-0.772,0.916
		l-0.473-0.188l-0.303,0.047l-0.828,1.039l-0.419,0.243l0.159,0.223l0.138,0.156l0.165,0.124l0.687,0.338l0.186,0.152l0.15,0.263
		l0.341-0.093l0.453,0.181l0.432,0.286l0.267,0.231l0.043-0.116l0.052-0.092l0.034-0.1l0.006-0.156l0.367,0.146l0.304-0.1
		l0.309-0.159l0.372-0.028v0.141l-0.285,0.245l-0.076,0.349l0.139,0.204l0.356-0.173l0.078,0.338l-0.043,0.769l0.177,0.38
		l0.298,0.144l0.196-0.193l0.239-0.513l0.176-0.098l0.017,0.053l-0.005,0.117l0.082,0.098l0.157,0.017l0.322-0.017l0.138,0.07
		l0.089,0.244l-0.233,0.118l-0.315,0.087l-0.157,0.174l-0.315,0.181l-0.699-0.285l-0.695-0.513l-0.315-0.478l-0.343-0.333
		l-1.289-0.396l0.011-0.42l-1.202-0.213l-0.157,0.046l0.169,0.262l0.985,0.979l0.264,0.121l2.519,2.065l-0.392-0.009l-0.46-0.294
		l-0.408-0.417l-0.221-0.379h-0.153l0.047,0.207l0.051,0.153l0.076,0.135l0.098,0.139l0.579,0.503l2.262,1.061l0.326,0.266
		l0.356,0.368l0.281,0.415l0.117,0.421l0.139,0.328l0.631,0.821l0.186,0.489l-0.088,1.593l0.024,0.262l0.068,0.092l-0.138,0.21
		l-0.227,0.21l-0.187,0.105l-0.275-0.012l-0.151-0.093l-0.519-0.788l-0.217-0.478l-0.139-0.512l-0.051-0.518l0.051-1.564
		l-0.051-0.222l-0.3,0.501l0.06,1.164l0.378,1.902l0.182,0.327l0.327,0.343l0.389,0.182l0.752-0.338l0.438,0.012l0.461,0.081
		l0.425,0.012l2.302-0.753l0.8-0.034l1.57,0.169l0.261-0.152l0.398-0.608l0.501-0.073l0.342-0.578l0.263-0.147l0.303-0.115
		l0.255-0.21l0.263-0.124l0.321,0.152l-0.588,0.957l-0.089,0.185l0.092,0.4l0.223-0.078l0.286-0.25l0.266-0.145l0.387-0.082
		l0.316-0.187l0.466-0.363l0.303-0.092l0.531-0.07l0.245-0.135l0.996-0.956l0.595-0.424l0.961-0.27l0.817-0.671L-5.4-41.44
		l0.221,0.233l0.322-0.028l0.372-0.128l0.386-0.077l0.816,0.077l0.742,0.244v0.139l-0.083,0.083l-0.187,0.244l0.561-0.339
		l0.257-0.526l-0.141-0.485l-0.613-0.214l-1.218-0.158l-0.186-0.115l-0.024-0.251l-0.07-0.218l-0.32-0.021l0.251-0.351l0.297,0.092
		l0.384,0.253l0.665,0.199l0.496,0.208l0.274,0.052l0.046-0.092l-0.396-0.478L-2.677-43.3l-0.058,0.082l-0.147,0.15l-0.052,0.089
		l-0.087-0.207L-3.079-43.3l0.052-0.182l0.028-0.052l-0.01-0.046l-0.07-0.187l0.145-0.167l0.076,0.069l0.053,0.035l0.129,0.064
		l-0.007-0.361l0.129-0.187l0.705-0.392l0.232-0.047l0.624,0.041l0.029-0.104l0.116-0.239l0.165-0.257l0.174-0.157l0.105-0.006
		l0.098,0.052l0.064,0.06l-0.011,0.033h0.408l0.116-0.052l0.113-0.208l0.127-0.046l0.119,0.021l0.051,0.058l0.034,0.06l0.058,0.029
		l0.153,0.133l0.087,0.275l0.104,0.199l0.199-0.082l0.408-0.263l1.423-0.124l0.634-0.266l0.387-0.037l1.447,1.19l1.859,1.18
		l0.888,0.384l0.473-0.098l0.42,0.479l0.243,0.202l0.345,0.083l0.244,0.135l0.863,0.658l0.186,0.221l0.17,0.285l0.741,0.783
		l0.169,0.49l0.087,0.121l0.187,0.113l0.187,0.139l0.082,0.235l0.104,0.54l0.016,0.233l0.123,0.38l0.294,0.437l0.356,0.396
		l0.319,0.275l0.677,0.309l0.134,0.107l0.234,0.227l0.169,0.127l0.402,0.164l0.389,0.064l0.34,0.104l0.232,0.285l0.081,0.472
		L16.6-34.391l-0.129,0.452l-0.209,0.256l0.116,0.221l0.092,0.327l0.024,0.322l-0.1,0.208l0.501,0.374l0.259,0.127l0.196-0.029
		l1.003,1.189l0.543,0.438l0.49-0.081l0.408,0.345l0.34,0.366l0.605,0.829l0.339,0.669l0.052,0.037l0.028,0.473l0.047,0.225
		l0.07,0.146l0.186,0.204l0.316,0.199l0.355,0.15l0.304,0.064l0.28,0.124l0.18,0.285l0.135,0.317l0.144,0.198l-0.227,0.215
		l-0.013,0.206l0.154,0.15l0.285,0.057l0.103,0.124l0.018,0.262l0.086,0.263l0.334,0.121l0.257-0.011l0.133-0.024l0.35-0.133
		l0.294-0.051l0.558-0.014l0.227-0.075l0.35,0.221l0.437,0.181l0.454,0.016l0.392-0.279l0.086,0.128l0.23,0.222l0.087,0.123
		l0.156-0.106l0.398-0.198v0.452l0.047,0.348l0.157,0.26l0.339,0.182l-0.421,0.258l0.221,0.384l0.736,0.585l-0.018,0.098v0.677
		l-0.059,0.222l-0.098,0.233l0.111,0.181l0.232,0.105l0.234,0.023l-0.129,0.45l0.105,0.391l0.828,1.032l0.14,0.115l0.15,0.058
		l0.379,0.054l0.135,0.057l0.209,0.288l0.053,0.325l-0.145,1.085l0.018,0.239l0.144,0.665l-0.49-0.619l-0.314-0.181l-0.276,0.342
		l0.054,0.199l0.39,0.508l0.099,0.297l0.064,0.081h0.134l0.138,0.037l0.064,0.183v0.773l0.043,0.22l0.058,0.158l-0.012,0.153
		l-0.162,0.22l-0.07,0.164l0.012,0.198l0.058,0.192l0.074,0.151l-0.196,0.39l-0.07,1.926l-0.206,0.671l-0.039,0.263l-0.025,1.207
		l-0.429,0.752l0.021,0.163v0.139L30.384-6.94l-0.712,1.881l0.141-0.046l0.057-0.033l0.076-0.072l0.041,0.291l-0.163,0.317
		l-0.421,0.623L29.252-3.35l-0.123,0.3l-0.261,0.291l-0.187-0.123l-0.089,0.297L28.57-2.146l0.013,0.303l0.105,0.561l0.117,0.338
		l0.187,0.321l-0.182,0.197l-0.052,0.274l-0.029,0.591l-0.432,2.035l-0.66,1.789l-0.099-0.32l0.041-0.392l0.146-0.379l0.187-0.291
		l-0.205,0.196l-0.221,0.316l-0.176,0.38l-0.076,0.409l0.04,0.432l0.188,0.634l0.042,0.297l0.274,0.518l1.208,1.19l0.272,0.731
		l0.059,0.366l0.158,0.496l0.221,0.397l0.25,0.053l0.016-0.28L29.828,8.53l-0.291-0.763l-0.234-0.403l-1.177-1.282l-0.157-0.31
		l0.074-0.308l0.374,0.372l0.769,0.612l0.35,0.408l0.356,0.536l0.239,0.151l0.426,0.056l0.036,0.097L30.57,8.182l0.045,0.187
		l0.111,0.098l0.135,0.04h0.362l0.321-0.134l0.223-0.326l0.07-0.403l-0.141-0.361l0.245-0.685l0.025-0.145l0.057-0.115l0.269-0.34
		l0.081-0.222V5.511l-0.103-0.469L32.238,4.78l0.627-0.38l0.176-0.139l-0.845,0.107l-0.76-0.299l-0.734-0.426l-0.757-0.308
		l0.313-0.375l0.912-0.254l0.245-0.282h-0.73l-0.181-0.047l-0.007-0.106l0.116-0.162l0.013-0.1l0.098-0.243l0.024-0.177
		l-0.034-0.156l-0.172-0.35L30.492,0.89l0.8,0.777l-0.006-0.234l0.006-0.071h0.123l0.163,0.239l0.244,0.206l0.548,0.303v0.162
		l-0.407,0.152v0.17l0.622,0.01l0.519,0.114l0.352,0.285l0.126,0.57l-0.126,1.072l0.028,0.556l0.245,0.426l0.176,0.047l0.698,0.029
		l0.094-0.222l-0.036-0.227l-0.124-0.314l0.025-0.817l0.082-0.355l0.175-0.264l0.408-0.234l0.344,0.036l0.239,0.268l0.181,0.922
		l0.39,0.927L36.44,5.93L36.278,6.27l-0.641,0.718l-0.141,0.225L34.944,7.6l-0.095,0.15l-0.31,0.62l-0.138,0.092L34.22,8.519
		l-0.153,0.116l-0.07,0.258l-0.059,0.173l-0.547,0.438L33.129,9.96l-0.14,0.46l-0.19,0.401l-0.427,0.285l0.081,0.212l0.053,0.081
		l-0.234,0.274l0.252-0.109l0.315-0.047l-0.123,0.268l-0.27,0.199l-0.577,0.156l-0.31,0.163l0.287,0.06l0.239,0.089l0.215,0.132
		l0.204,0.176l-0.419,0.028l-0.513-0.261l-0.479-0.147l-0.343,0.38l0.123,0.139l0.134,0.1l0.144,0.024l0.141-0.092h0.123
		l0.012,0.219l-0.036,0.198l-0.092,0.182l-0.141,0.151l-0.221-0.221l-0.518-0.245l-0.205-0.152l-0.104-0.173l-0.303-0.731h-0.134
		l0.07,0.351l0.379,1.003l0.227,0.323l0.31,0.132l0.734,0.129l0.763,0.573l0.375,0.196l0.279,0.291l0.217,1.069l0.413,0.845
		l0.022,0.554h-0.134l-0.064-0.135l-0.065-0.063l-0.07-0.041l-0.087-0.075l0.005,0.479l0.245,0.431l0.327,0.437l0.234,0.479h0.145
		v-0.303l0.204,0.145l0.135,0.239l0.07,0.314v0.375l-0.107-0.111l-0.07-0.11l-0.092-0.248l0.11,0.498l0.467,0.915l0.198,0.783
		l1.791,3.569l0.129,0.435l0.08,0.083l0.1,0.076l0.239,0.144l-0.094-0.337l-0.261-0.519l-0.065-0.345l0.537,0.584l0.577,1.884
		l0.588,0.401l0.181,0.006l0.141,0.03l0.28,0.098l0.156,0.099l0.187,0.181l0.135,0.037l0.117-0.025l0.058-0.052l0.034-0.047
		l0.063-0.022l0.095,0.047l0.187,0.219l0.064,0.043l0.123-0.082l0.145-0.163l0.116-0.152l0.018-0.081l0.169,0.24l0.07,0.623
		l0.175-0.094l0.129-0.291l-0.02-0.327l-0.174-0.972L40.67,26.11l-0.104-0.17l-0.122-0.14l-0.274-0.682l-0.211-0.244l-0.145,0.162
		l-0.217-0.196l-0.57-0.717l-0.234-0.41l-0.057-0.18l0.408,0.203l0.221,0.245l0.392,0.67l0.291,0.078l0.326-0.172l0.199-0.063
		l-0.07,0.38l0.361,0.42l0.215,0.187l0.094-0.072l0.118-0.207l0.245-0.037l0.239-0.078l0.086-0.349l0.456,0.124l0.356-0.072
		l0.339-0.139l0.803-0.167l0.426-0.408l0.334-0.106l-0.245,0.676l-0.11,0.157l-0.186,0.099l-0.433,0.092l-0.983,0.59l-0.386,0.297
		L42.2,26.167l0.401,0.339l0.269,0.134l0.146,0.203l0.047,0.539l-0.041,0.495l-0.484,2.555l-0.012,0.493l0.092,0.339l0.346,0.782
		l0.098,0.396l-0.028,0.513l-0.101,0.323l-0.034,0.266l0.163,0.385l0.309,0.343l0.245-0.006l0.274-0.168l0.395-0.169v0.31
		l0.192-0.094l0.46-0.135l0.159-0.081l0.08-0.116l0.595-1.707l0.216-0.353l0.647-0.692l0.38-0.317l0.325-0.132l0.375-0.055
		l0.471-0.279l0.292-0.116l-0.084,0.265l-0.103,0.197l-0.152,0.158l-0.198,0.145l-0.204-0.115l-0.222,0.094l-0.174,0.191
		l-0.076,0.205l-0.862,0.859l-0.227,0.285l0.08,0.556l-0.371,0.598l-0.527,0.515l-0.536,0.362l-0.087,0.103l-0.088,0.083
		l-0.151,0.033l-0.14-0.064l-0.134-0.245l-0.081-0.006l-0.116,0.199l-0.053,0.321v0.324l0.047,0.216l0.123-0.162l0.111,0.11
		l0.058,0.023l0.263-0.132l1.077,0.599h0.404l0.092,0.057l0.088,0.106l0.134,0.059l0.094-0.059l0.081-0.19l-0.075-0.55l-0.006-0.321
		l0.136,0.337l0.395,0.696l0.141,0.325l0.098,0.433l0.034,1.365h-0.133V37.99H47l0.07,0.358l0.589,1.08l0.013,0.069l0.004,0.146
		l-0.12,0.752l0.168,1.715l0.355,1.57h0.145l-0.012-0.239l0.006-0.234l0.048-0.216l0.08-0.203l0.338,1.57l0.315,0.557l0.561,0.44
		l-0.169,0.203l0.053,0.269l0.187,0.252l0.215,0.168l0.187,0.045l0.448-0.058l0.291,0.012l-0.065,0.255l-0.151,0.294l-0.192,0.242
		l-0.182,0.106l-0.221-0.115L49.74,46.8l-0.234-0.145l-0.275,0.114l0.129,0.637l0.076,0.167l0.193,0.23l0.074,0.047l0.14,0.023
		h0.124l-0.012-0.152l0.11-0.098l0.045-0.048l0.07-0.162l0.065-0.123l0.135,0.187l0.198,0.111l0.234,0.042l0.245-0.055l0.19-0.121
		l0.146-0.303l0.2-0.158l0.109,0.257l0.19,0.175l0.224,0.083l0.163-0.054l0.033,0.14l0.048,0.052v0.064l-0.081,0.163l0.162-0.065
		l0.227-0.191l0.083-0.043l0.175,0.048l0.269,0.205L53.605,48l0.228,0.221l0.209,0.095l0.263-0.28l0.204,0.185l0.256,0.356
		l0.228,0.191l0.244,0.102l0.579,0.104l0.256,0.104l0.472,0.338l0.473,0.421l0.374,0.579l0.152,0.168l-0.52,0.396l-0.182,0.239
		l0.246,0.109l0.088,0.123l0.239,0.582l0.128,0.187l0.17,0.03l0.664,0.047l0.022,0.395l0.07,0.245l0.163,0.176l-0.006,0.303
		l0.413,0.752l0.205,0.981l0.076,0.209l0.233,0.095L60,55.343l0.187,0.092l0.031,0.152l-0.077,0.168l-0.117,0.139l-0.367,0.244
		l0.22,0.434l0.642,0.718l0.281,0.838l0.022,0.21l0.107,0.45l0.022,0.232l0.153,0.228l0.908,0.729l0.754,0.145l0.109,0.052
		l0.345,0.211l0.693,0.117l0.362,0.193l1.121,1.19l0.133,0.383l-0.196,0.473l-0.346,0.258l-0.424,0.115l-0.432-0.011l-0.35-0.145
		v-0.135l0.111-0.035l0.187-0.095l0.111-0.032v-0.149l-1.512-0.639l-0.255-0.182l-0.063-0.011l-0.346-0.665l-0.134-0.176
		l-0.198-0.196l-0.233-0.159l-0.239-0.045l0.123-0.316l-0.368,0.291l-0.326,0.717l-0.211,0.852l-0.027,0.679l0.228,0.665l0.325,0.68
		l0.928,0.894l0.308,0.069l0.922-0.221l0.794-0.076l0.641-0.14l0.756-0.012l0.369-0.069l0.453-0.496l0.082-0.031l0.555-0.358
		l0.291,0.278l0.589,0.123l-0.07,0.176v0.162l0.174,0.065l0.092,0.017l0.065-0.062l0.071-0.182l0.103,0.121l0.107,0.072l0.098,0.051
		l0.099,0.064l0.024-0.1l0.033-0.064l0.043-0.057l0.047-0.087l0.194,0.232l0.313,0.109l0.334,0.012l0.24-0.047l0.39-0.375
		l0.257-0.115l0.297,0.182h0.123l0.116-0.182l-0.012-0.135l-0.07-0.141l-0.034-0.201l0.111-0.072l0.723-0.156l-0.036,0.092
		l-0.022,0.011l-0.03-0.006l-0.059,0.047l0.31,0.109l0.176-0.318l0.141-0.479l0.19-0.351l0.303-0.1l0.794-0.011l0.257-0.036
		l0.074,0.141l0.024,0.065l0.025,0.09l-0.175,0.038l-0.095,0.047l-0.053,0.086l-0.079,0.138l0.135,0.069l0.11,0.092l0.089,0.124
		l0.065,0.146l0.337-0.216l0.39,0.051l0.298,0.274l0.065,0.479h0.146l-0.065-0.438l-0.238-0.343l-0.356-0.198l-0.432-0.041
		l0.244-0.28l0.393-0.186l0.307-0.024v0.328l0.269,0.098l0.39,0.56l0.297,0.246l0.006-0.206l-0.252-0.245l-0.239-0.323l0.055-0.429
		l0.022-0.239l0.338-0.386l0.07-0.197l0.036-0.186l0.092-0.163l0.892-1.017l0.717-0.629l0.03-0.268L77.316,59.1l-0.252-0.141
		l-0.156-0.176l0.144-0.406l0.159-0.304l-0.077-0.116l-0.14-0.089l-0.086-0.123l-0.065-0.466l0.034-0.401l0.172-0.395l0.324-0.458
		l0.124-0.373l0.017-1.067l0.07-0.42l0.577-0.566l0.408-0.932l0.034-0.525l0.071-0.21l0.216-0.193l0.191-0.035h0.192l0.205-0.083
		l0.291-0.412l0.013-0.913l0.248-0.581l0.124-0.784l0.711-0.93l0.159-0.011l0.064,0.29l0.01,0.567l-0.132,0.985v0.91h0.132
		l0.315-6.415l-0.315-0.489v-0.163l0.328-0.25l0.187-0.654l0.494-3.231l-0.064-0.481l0.119-0.323l0.034-0.367l-0.018-0.752
		l0.042-0.333l0.198-0.666l0.161-2.978l0.31-0.043L83,32.963L82.961,30.153z M73.043,69.179l0.029-0.21l-0.082-0.268l-0.012-0.043
		l-0.074,0.066l-0.024,0.225l0.076,0.236L73.043,69.179z M66.297,66.2l0.123-0.094l0.132-0.024l-0.122-0.158l-0.111-0.017
		l-0.006,0.034l0.018,0.041l0.013,0.023l-0.089,0.107L66.297,66.2z M66.659,66.816l0.184,0.054h0.031l-0.024-0.165l0.153-0.073
		l0.092-0.06l-0.04-0.035l0.011-0.083l-0.134-0.04l-0.112-0.011l0.053,0.069l-0.053,0.1L66.659,66.816z M33.974,15.619l-0.053,0.07
		l-0.098,0.187l0.365-0.157l-0.138-0.082L33.974,15.619z M34.22,15.736l0.033-0.042l-0.065,0.025L34.22,15.736z M28.841,79.759
		l0.024-0.037l-0.011-0.081L28.841,79.759z M27.857,79.623l0.086-0.059l-0.062-0.065L27.857,79.623z M28.989,79.674v-0.076
		l-0.025,0.061L28.989,79.674z M29.274,79.228v-0.02l-0.041,0.025l0.022,0.028l0.006,0.011l0.03-0.011L29.28,79.22L29.274,79.228z
		 M29.053,79.759l0.034-0.052l-0.041-0.009L29.053,79.759z"/>
</g>
<polygon points="104.584,17.505 104.586,17.502 104.585,17.493 "/>
<polygon points="104.481,17.491 104.49,17.485 104.484,17.478 "/>
<polygon points="104.599,17.497 104.599,17.489 104.596,17.495 "/>
<polygon points="104.629,17.45 104.629,17.448 104.624,17.451 104.627,17.454 104.627,17.455 104.63,17.454 104.629,17.449 "/>
<polygon points="104.606,17.505 104.609,17.5 104.605,17.499 "/>
</svg>
