<svg version="1.1" class="florida-man" xmlns="http://www.w3.org/2000/svg" xmlns:xlink="http://www.w3.org/1999/xlink" viewBox="-67 -66.019 150 147.538">
<g>
	<path fill="#CE5A27" d="M63.731,64.59l0.163,0.129l0.187,0.117l0.051-0.213l0.047-0.097l-0.012-0.095l-0.053-0.163l-0.163-0.028
		l-0.227,0.051l-0.076-0.011l0.041-0.045l-0.119-0.037l-0.116,0.117L63.731,64.59z M64.325,65.075l0.076,0.285l0.152,0.255
		l0.156,0.059l0.14-0.092l0.065-0.139l0.174-0.258l-0.058-0.234l-0.094-0.042l-0.243-0.053l-0.257,0.037L64.325,65.075z
		 M63.736,63.931l-0.116,0.059l-0.063,0.103l0.144,0.047l0.701,0.048l0.023-0.063l-0.316-0.053L63.736,63.931z M64.897,64.799
		l0.181-0.139l-0.047-0.083l-0.344-0.092l-0.11,0.036l-0.043,0.117l0.052,0.127l0.094,0.087L64.897,64.799z M58.397,52.693
		l0.07,0.245l0.163,0.176l-0.006,0.303l0.413,0.752l0.205,0.981l0.076,0.209l0.233,0.095L60,55.343l0.187,0.092l0.031,0.152
		l-0.077,0.168l-0.117,0.139l-0.367,0.244l0.22,0.434l0.642,0.718l0.281,0.838l0.022,0.21l0.107,0.45l0.022,0.232l0.153,0.228
		l0.908,0.729l0.754,0.145l0.109,0.052l0.345,0.211l0.693,0.117l0.362,0.193l1.121,1.19l0.133,0.383l-0.196,0.473l-0.346,0.258
		l-0.424,0.115l-0.432-0.011l-0.35-0.145v-0.135l0.111-0.035l0.187-0.095l0.111-0.032v-0.149l-1.512-0.639l-0.255-0.182
		l-0.063-0.011l-0.346-0.665l-0.134-0.176l-0.198-0.196l-0.233-0.159l-0.239-0.045l0.123-0.316l-0.368,0.291l-0.326,0.717
		l-0.211,0.852l-0.027,0.679l0.228,0.665l0.325,0.68l0.928,0.894l0.308,0.069l0.922-0.221l0.794-0.076l0.641-0.14l0.756-0.012
		l0.369-0.069l0.453-0.496l0.082-0.031l0.555-0.358l0.291,0.278l0.589,0.123l-0.07,0.176v0.162l0.174,0.065l0.092,0.017l0.065-0.062
		l0.071-0.182l0.103,0.121l0.107,0.072l0.098,0.051l0.099,0.064l0.024-0.1l0.033-0.064l0.043-0.057l0.047-0.087l0.194,0.232
		l0.313,0.109l0.334,0.012l0.24-0.047l-3.938-6.034L58.397,52.693z"/>
</g>
<polygon points="104.584,17.505 104.586,17.502 104.585,17.493 "/>
<polygon points="104.481,17.491 104.49,17.485 104.484,17.478 "/>
<polygon points="104.599,17.497 104.599,17.489 104.596,17.495 "/>
<polygon points="104.629,17.45 104.629,17.448 104.624,17.451 104.627,17.454 104.627,17.455 104.63,17.454 104.629,17.449 "/>
<polygon points="104.606,17.505 104.609,17.5 104.605,17.499 "/>
</svg>
