<svg version="1.1" xmlns="http://www.w3.org/2000/svg" xmlns:xlink="http://www.w3.org/1999/xlink" viewBox="0 0 400 400">
	<path fill="none" stroke="#000000" stroke-width="6" stroke-miterlimit="10" d="M37.462,44.138c0,0-46.117-50.857-34.535-44.138"/>
<path fill="none" stroke="#000000" stroke-width="6" stroke-miterlimit="10" d="M83.363,91.042c0,0-24.422-33.351-45.901-46.904
	C32.676,59.81,24.286,87.286,24.286,87.286l-30.714,69.286"/>
<path fill="none" stroke="#000000" stroke-width="5" stroke-miterlimit="10" d="M186.193,196.119
	c-6.193-13.833-55.488-56.7-55.488-56.7S89.442,84.408,83.363,91.042c-6.079,6.634,10.923,73.387,10.923,73.387l47.857,167.857
	L125.857,342l-20.143,46.714L121.429,400"/>
<path fill="none" stroke="#000000" stroke-width="5" stroke-miterlimit="10" d="M400,400l-53.619-50.97
	c0,0-47.151-23.887-61.381-37.403c-11.533-10.955-98.807-115.507-98.807-115.507l-34.016,52.834l39.966,49.107V306l17.143,56.571"/>
<polyline fill="none" stroke="#000000" stroke-width="5" stroke-miterlimit="10" points="192.143,298.059 267.857,355.143 321.429,400 "/>
<line fill="none" stroke="#000000" stroke-width="3" stroke-miterlimit="10" x1="8.571" y1="400" x2="152.177" y2="248.952"/>
<polyline fill="none" stroke="#000000" stroke-width="3" stroke-miterlimit="10" points="94.286,164.429 74.286,303 64.286,375.143 
	94.286,402.286 "/>
<polyline fill="none" stroke="#000000" stroke-width="4" stroke-miterlimit="10" points="24.286,87.286 36.429,185.857 15,325.143 
	0,400 "/>
<line fill="none" stroke="#000000" stroke-width="3" stroke-miterlimit="10" x1="346.381" y1="349.03" x2="204.286" y2="408.714"/>
<line fill="none" stroke="#000000" stroke-width="4" stroke-miterlimit="10" x1="53.571" y1="400" x2="15" y2="325.143"/>
<line fill="none" stroke="#000000" stroke-width="3" stroke-miterlimit="10" x1="34.286" y1="400" x2="64.286" y2="375.143"/>
<line fill="none" stroke="#000000" stroke-width="3" stroke-miterlimit="10" x1="257.143" y1="400" x2="267.857" y2="355.143"/>
<line fill="none" stroke="#000000" stroke-width="4" stroke-miterlimit="10" x1="179.286" y1="400" x2="175" y2="388.714"/>
<polyline fill="none" stroke="#000000" stroke-width="3" stroke-miterlimit="10" points="142.143,332.286 175,388.714 147.857,400 
	"/>
<line fill="none" stroke="#000000" stroke-width="4" stroke-miterlimit="10" x1="102.143" y1="400" x2="105.714" y2="388.714"/>

</svg>
